<?xml version="1.0" encoding="utf-8"?>
<!-- Generator: Adobe Illustrator 19.0.1, SVG Export Plug-In . SVG Version: 6.00 Build 0)  -->
<svg version="1.1" id="Calque_1" xmlns="http://www.w3.org/2000/svg" xmlns:xlink="http://www.w3.org/1999/xlink" x="0px" y="0px"
	 viewBox="-267 232 425 98" style="enable-background:new -267 232 425 98;" xml:space="preserve">
<style type="text/css">
	.st0{fill:none;}
	.st1{enable-background:new    ;}
	.st2{fill:#0CD6E5;}
</style>
<rect x="-105.6" y="248.1" class="st0" width="267.3" height="62.4"/>
<g class="st1">
	<path class="st2" d="M-67.2,280.9c0,4.6-1.4,8.7-4.3,12.1c-3.1,3.7-6.9,5.5-11.5,5.5c-3,0-5.7-0.8-8.1-2.3
		c-0.9-0.8-1.9-1.6-2.8-2.4c-0.3,0.1-0.4,0.8-0.5,2.1c-0.1,1.3-0.3,2-0.6,2h-7.4c-0.3,0-0.4-0.2-0.4-0.5c0,0,0-0.2,0.1-0.6
		c0.4-3.8,0.6-10.9,0.6-21.5c0-4.3-0.2-10.7-0.6-19.1c-0.2-5.3-0.4-7.7-0.4-7c0-0.6,0.3-0.9,0.9-1c0.8,0,2.1-0.1,3.8-0.1
		c0.3,0,1-0.1,2-0.2c0.8-0.1,1.5-0.2,2-0.2c0.4,0,0.6,0.3,0.6,0.8c0,0.8-0.1,2-0.2,3.7c-0.1,1.6-0.2,2.9-0.2,3.7
		c0,1.2-0.1,3.1-0.2,5.5s-0.2,4.3-0.2,5.5c0,0.9,0.2,1.3,0.5,1.3c0.2,0,0.3-0.1,0.5-0.4c2.6-3.2,6-4.8,10.2-4.8
		c4.9,0,8.8,1.8,11.8,5.4C-68.6,271.8-67.2,276-67.2,280.9z M-75.1,280.6c0-2.8-0.9-5.3-2.6-7.4c-1.9-2.3-4.2-3.4-6.9-3.4
		c-2.8,0-5.2,1.1-7,3.3c-1.8,2.1-2.7,4.6-2.7,7.5c0,2.9,0.9,5.4,2.7,7.5c1.9,2.2,4.2,3.3,7.1,3.3c2.8,0,5.1-1.1,6.9-3.4
		C-76,285.9-75.1,283.4-75.1,280.6z"/>
	<path class="st2" d="M-28,266.1c0,0.1,0,0.3-0.1,0.6c-0.9,5.4-1.4,10-1.4,13.9c0,0.2,0.3,5.5,0.9,15.8l0,0.5c0,0.7-0.3,1-0.9,1
		s-1.6,0.1-2.9,0.2s-2.3,0.2-2.9,0.2c-0.4,0-0.8-0.8-1-2.5s-0.5-2.5-0.7-2.5c-0.1,0-0.8,0.5-1.9,1.4c-1.4,1.1-2.7,2-3.9,2.6
		c-1.9,0.9-3.7,1.4-5.6,1.4c-4.5,0-8.4-1.8-11.5-5.4c-3-3.5-4.4-7.5-4.4-12.1c0-5.2,1.5-9.5,4.5-12.9c3.1-3.5,7.2-5.3,12.3-5.3
		c3.6,0,6.7,1.2,9.4,3.7c0.4,0.5,1,1.1,1.9,2c0.1,0.1,0.1,0.1,0.2,0.1c0.1,0,0.3-0.7,0.6-2.2s0.6-2.2,1-2.2c0.6,0,1.8,0.2,3.6,0.5
		C-28.9,265.4-28,265.7-28,266.1z M-36.9,280.8c0-2.9-0.9-5.4-2.6-7.4c-1.8-2.2-4.1-3.3-6.9-3.3s-5.2,1.1-7,3.3
		c-1.8,2.1-2.7,4.6-2.7,7.5c0,2.8,0.9,5.3,2.7,7.4c1.9,2.2,4.2,3.3,7,3.3c2.7,0,5-1.1,6.9-3.3C-37.8,286-36.9,283.5-36.9,280.8z"/>
	<path class="st2" d="M11.5,248.8c0,3-0.1,7.6-0.4,13.6S10.7,273,10.7,276c0,9.3,0.2,16.3,0.6,21l0,0.5c0,0.2-0.3,0.4-0.9,0.5
		c-0.4,0-1.1,0-1.9,0c-1-0.1-1.4-0.1-1.4-0.1c-0.4,0-0.9,0-1.5,0.1S4.4,298,4.1,298c-0.3,0-0.5-0.8-0.6-2.4s-0.1-2.5-0.3-2.5
		c-0.1,0.1-0.3,0.2-0.5,0.5c-3.2,3.5-6.9,5.2-11.1,5.2c-4.7,0-8.6-1.8-11.7-5.4c-2.9-3.4-4.3-7.5-4.3-12.3c0-5,1.5-9.2,4.4-12.6
		c3-3.6,7-5.3,11.9-5.3c3,0,5.5,0.9,7.7,2.6c1,0.9,2,1.7,3,2.6c0.2-0.1,0.3-0.2,0.3-0.5v-11.4c0-0.8,0-1.9-0.1-3.5s-0.1-2.8-0.1-3.6
		c0-0.6,0.2-0.8,0.6-0.8c0.9,0,2.2-0.1,3.9-0.2s3-0.2,3.8-0.2C11.3,248.1,11.5,248.3,11.5,248.8z M2.8,280.8c0-2.8-0.9-5.3-2.6-7.4
		c-1.9-2.3-4.1-3.4-6.9-3.4c-2.9,0-5.3,1.1-7.1,3.4c-1.8,2.1-2.7,4.6-2.7,7.6c0,2.8,0.9,5.3,2.8,7.3c1.9,2.2,4.2,3.3,7,3.3
		c2.8,0,5.1-1.1,7-3.3C1.9,286.2,2.8,283.7,2.8,280.8z"/>
	<path class="st2" d="M52,266.1c0,0.1,0,0.3-0.1,0.6c-0.9,5.4-1.4,10-1.4,13.9c0,0.2,0.3,5.5,0.9,15.8l0,0.5c0,0.7-0.3,1-0.9,1
		s-1.6,0.1-2.9,0.2s-2.3,0.2-2.9,0.2c-0.4,0-0.8-0.8-1-2.5s-0.5-2.5-0.7-2.5c-0.1,0-0.8,0.5-1.9,1.4c-1.4,1.1-2.7,2-3.9,2.6
		c-1.9,0.9-3.7,1.4-5.6,1.4c-4.5,0-8.4-1.8-11.5-5.4c-3-3.5-4.4-7.5-4.4-12.1c0-5.2,1.5-9.5,4.5-12.9c3.1-3.5,7.2-5.3,12.3-5.3
		c3.6,0,6.7,1.2,9.4,3.7c0.4,0.5,1,1.1,1.9,2c0.1,0.1,0.1,0.1,0.2,0.1c0.1,0,0.3-0.7,0.6-2.2s0.6-2.2,1-2.2c0.6,0,1.8,0.2,3.6,0.5
		C51,265.4,52,265.7,52,266.1z M43,280.8c0-2.9-0.9-5.4-2.6-7.4c-1.8-2.2-4.1-3.3-6.9-3.3s-5.2,1.1-7,3.3c-1.8,2.1-2.7,4.6-2.7,7.5
		c0,2.8,0.9,5.3,2.7,7.4c1.9,2.2,4.2,3.3,7,3.3c2.7,0,5-1.1,6.9-3.3C42.1,286,43,283.5,43,280.8z"/>
	<path class="st2" d="M92.6,280.9c0,4.6-1.4,8.7-4.3,12.1c-3.1,3.7-6.9,5.5-11.5,5.5c-3,0-5.7-0.8-8.1-2.3c-0.9-0.8-1.9-1.6-2.8-2.4
		c-0.3,0.1-0.4,0.8-0.5,2.1s-0.3,2-0.6,2h-7.4c-0.3,0-0.4-0.2-0.4-0.5c0,0,0-0.2,0.1-0.6c0.4-3.8,0.6-10.9,0.6-21.5
		c0-4.3-0.2-10.7-0.6-19.1c-0.2-5.3-0.4-7.7-0.4-7c0-0.6,0.3-0.9,0.9-1c0.8,0,2.1-0.1,3.8-0.1c0.3,0,1-0.1,2-0.2
		c0.8-0.1,1.5-0.2,2-0.2c0.4,0,0.6,0.3,0.6,0.8c0,0.8-0.1,2-0.2,3.7s-0.2,2.9-0.2,3.7c0,1.2-0.1,3.1-0.2,5.5s-0.2,4.3-0.2,5.5
		c0,0.9,0.2,1.3,0.5,1.3c0.2,0,0.3-0.1,0.5-0.4c2.6-3.2,6-4.8,10.2-4.8c4.9,0,8.8,1.8,11.8,5.4C91.2,271.8,92.6,276,92.6,280.9z
		 M84.6,280.6c0-2.8-0.9-5.3-2.6-7.4c-1.9-2.3-4.2-3.4-6.9-3.4c-2.8,0-5.2,1.1-7,3.3c-1.8,2.1-2.7,4.6-2.7,7.5
		c0,2.9,0.9,5.4,2.7,7.5c1.9,2.2,4.2,3.3,7.1,3.3c2.8,0,5.1-1.1,6.9-3.4C83.8,285.9,84.6,283.4,84.6,280.6z"/>
	<path class="st2" d="M117.7,264.9c0,2.6-0.2,4.9-0.5,7c-0.1,0.5-0.3,0.8-0.7,0.8c-0.5,0-1.2-0.1-2.2-0.2s-1.8-0.2-2.3-0.2
		c-3,0-4.8,0.8-5.7,2.5c-0.5,1-0.7,3.1-0.7,6.3v3.9c0,1.3,0.1,3.3,0.2,6s0.2,4.7,0.2,6c0,0.6-0.3,0.9-0.8,0.9c-0.7,0-1.8,0-3.3,0
		s-2.6,0-3.3,0c-0.5,0-0.8-0.3-0.8-0.9c0-1.9,0-4.8,0.1-8.6s0.1-6.7,0.1-8.6c0-5.8-0.5-10.4-1.6-14c0-0.2-0.1-0.3-0.1-0.4
		c0-0.3,0.2-0.5,0.5-0.6c0.9-0.1,2.1-0.2,3.7-0.4c2.5-0.5,3.7-0.7,3.5-0.7c0.4,0,0.6,0.7,0.7,2.1s0.3,2.1,0.6,2.1c0,0,0.1,0,0.2-0.1
		c1-0.6,1.9-1.2,2.9-1.8c1.1-0.6,2.1-1.1,3.2-1.4c0.9-0.3,2.1-0.4,3.5-0.4C116.8,264.1,117.7,264.4,117.7,264.9z"/>
	<path class="st2" d="M155.8,266.1c0,0.1,0,0.3-0.1,0.6c-0.9,5.4-1.4,10-1.4,13.9c0,0.2,0.3,5.5,0.9,15.8l0,0.5c0,0.7-0.3,1-0.9,1
		s-1.6,0.1-2.9,0.2s-2.3,0.2-2.9,0.2c-0.4,0-0.8-0.8-1-2.5s-0.5-2.5-0.7-2.5c-0.1,0-0.8,0.5-1.9,1.4c-1.4,1.1-2.7,2-3.9,2.6
		c-1.9,0.9-3.7,1.4-5.6,1.4c-4.5,0-8.4-1.8-11.5-5.4c-3-3.5-4.4-7.5-4.4-12.1c0-5.2,1.5-9.5,4.5-12.9c3.1-3.5,7.2-5.3,12.3-5.3
		c3.6,0,6.7,1.2,9.4,3.7c0.4,0.5,1,1.1,1.9,2c0.1,0.1,0.1,0.1,0.2,0.1c0.1,0,0.3-0.7,0.6-2.2s0.6-2.2,1-2.2c0.6,0,1.8,0.2,3.6,0.5
		C154.8,265.4,155.8,265.7,155.8,266.1z M146.8,280.8c0-2.9-0.9-5.4-2.6-7.4c-1.8-2.2-4.1-3.3-6.9-3.3s-5.2,1.1-7,3.3
		c-1.8,2.1-2.7,4.6-2.7,7.5c0,2.8,0.9,5.3,2.7,7.4c1.9,2.2,4.2,3.3,7,3.3c2.7,0,5-1.1,6.9-3.3C145.9,286,146.8,283.5,146.8,280.8z"
		/>
</g>
<rect x="-267" y="248.1" class="st0" width="41" height="66.2"/>
<g class="st1">
	<path class="st2" d="M-228.2,266.1c0,0.1,0,0.3-0.1,0.6c-0.9,5.4-1.4,10-1.4,13.9c0,0.2,0.3,5.5,0.9,15.8l0,0.5c0,0.7-0.3,1-0.9,1
		c-0.6,0-1.6,0.1-2.9,0.2s-2.3,0.2-2.9,0.2c-0.4,0-0.8-0.8-1-2.5c-0.2-1.6-0.5-2.5-0.7-2.5c-0.1,0-0.8,0.5-1.9,1.4
		c-1.4,1.1-2.7,2-3.9,2.6c-1.9,0.9-3.7,1.4-5.6,1.4c-4.5,0-8.4-1.8-11.5-5.4c-3-3.5-4.4-7.5-4.4-12.1c0-5.2,1.5-9.5,4.5-12.9
		c3.1-3.5,7.2-5.3,12.3-5.3c3.6,0,6.7,1.2,9.4,3.7c0.4,0.5,1,1.1,1.9,2c0.1,0.1,0.1,0.1,0.2,0.1c0.1,0,0.3-0.7,0.6-2.2
		c0.3-1.5,0.6-2.2,1-2.2c0.6,0,1.8,0.2,3.6,0.5C-229.1,265.4-228.2,265.7-228.2,266.1z M-237.1,280.8c0-2.9-0.9-5.4-2.6-7.4
		c-1.8-2.2-4.1-3.3-6.9-3.3s-5.2,1.1-7,3.3c-1.8,2.1-2.7,4.6-2.7,7.5c0,2.8,0.9,5.3,2.7,7.4c1.9,2.2,4.2,3.3,7,3.3
		c2.7,0,5-1.1,6.9-3.3C-238,286-237.1,283.5-237.1,280.8z"/>
</g>
<g>
	<path class="st2" d="M-134.2,274.8c-0.3,0.7-0.9,2.3-1.8,4.8c-0.9,2.6-1.3,4.1-1.3,4.6c0,0.3,0.5,0.5,1.5,0.5c0.5,0,1.4,0,2.5,0
		s1.7-0.1,1.8-0.4c0-0.1,0-0.2,0-0.3c0-0.5-0.4-2.1-1.1-4.5C-133.3,277-133.9,275.5-134.2,274.8z"/>
	<path class="st2" d="M-164.7,271.3c-1-0.6-2.6-0.9-4.8-0.9c-1.6,0-2.4,0.2-2.5,0.7c-0.1,0.6-0.1,2.2-0.1,4.9c0,0.4,0,0.9,0,1.7
		c0,0.7,0,1.3,0,1.7c0,0.1,0.3,0.2,0.8,0.2c1,0.1,2.1,0.2,3.2,0.2c3.6,0,5.5-1.4,5.5-4.3C-162.7,273.5-163.3,272.1-164.7,271.3z"/>
	<path class="st2" d="M-220,232v98h107v-98H-220z M-185.1,293.6c-3.1,3.6-7.1,5.5-12.2,5.5c-5.2,0-9.4-1.8-12.6-5.3
		c-3.1-3.4-4.7-7.7-4.7-12.9c0-5,1.5-9.3,4.6-12.8c3.2-3.7,7.3-5.5,12.2-5.5c5.4,0,9.6,1.7,12.7,5c0.3,0.4,0.5,0.7,0.5,1
		c0,0.3-0.6,1.5-1.7,3.5c-1.2,2-1.9,3.2-2.2,3.4c-0.1,0.1-0.3,0.2-0.5,0.2c-0.1,0-0.5-0.3-1.2-1c-0.9-0.8-1.8-1.4-2.6-1.9
		c-1.3-0.7-2.7-1-4.1-1c-2.4,0-4.4,0.9-5.9,2.7c-1.3,1.7-2,3.8-2,6.3s0.7,4.6,2,6.3c1.5,1.9,3.4,2.8,5.9,2.8c1.4,0,2.8-0.3,4.1-0.9
		c0.8-0.4,1.7-1,2.6-1.7c0.7-0.6,1.1-0.9,1.2-0.9c0.2,0,0.3,0.1,0.5,0.3c0.3,0.3,1,1.3,2.2,3.1c1.2,1.8,1.8,2.9,1.8,3
		C-184.6,292.8-184.8,293.1-185.1,293.6z M-152.7,298.1c-0.6,0.1-2.2,0.1-4.8,0.1c-2.2,0-3.7,0-4.4-0.1c-0.4,0-0.6-0.1-0.6-0.1
		c-0.1-0.1-0.2-0.2-0.3-0.5c-0.2-0.6-0.6-1.6-1.1-2.9c-0.6-1.7-1.7-4.1-3-7.3c-0.3-0.6-0.9-1-1.9-1.1c0,0-0.9,0-2.7,0
		c-0.2,0-0.4,0.4-0.4,1.3c0,1.1,0.1,2.8,0.3,5.1c0.2,2.2,0.3,3.9,0.3,5.1c0,0.3-0.1,0.4-0.2,0.5c-0.2,0-0.5,0-0.7,0
		c-1,0.1-2.5,0.1-4.6,0.1c-2.4,0-3.8,0-4.3-0.1c-0.5-0.1-0.7-0.4-0.7-0.8c0-1.8,0.1-4.6,0.3-8.3c0.2-3.7,0.3-6.4,0.3-8.3
		c0-7-0.2-12.5-0.5-16.4v-0.3c0-0.3,0.2-0.5,0.8-0.6c0.5-0.1,3.1-0.2,7.6-0.3c3.1-0.1,5.5-0.1,7.3-0.1c3.8,0,6.9,0.9,9.3,2.6
		c2.7,1.9,4.1,4.7,4.1,8.3c0,2.4-0.3,4.4-1,5.8s-2,2.8-3.9,4.2c-0.4,0.3-0.6,0.5-0.6,0.7c0,0,1,2.1,3,6.3c2,4.2,3,6.5,3,6.9
		C-152.2,298-152.4,298.1-152.7,298.1z M-117.2,298.1c-0.5,0.1-2,0.2-4.6,0.2c-2.4,0-3.9-0.1-4.6-0.2c-0.6-0.1-0.9-0.5-1.1-1.1
		c-0.6-2.4-1-3.7-1.3-3.8c-0.3-0.1-2.5-0.2-6.7-0.2c-2.8,0-4.3,0.1-4.5,0.2c-0.3,0.3-0.6,1.2-0.9,2.7c-0.3,1.4-0.7,2.1-1.1,2.2
		c-0.6,0.1-2.5,0.2-5.7,0.2c-2.5,0-3.8-0.2-3.8-0.7c0-0.4,1.9-5.7,5.6-15.9c4.1-11,6.3-17.1,6.6-18.2c0.2-0.6,0.4-0.9,0.7-0.9
		c0.4,0,1.1,0,2.1,0.1c0.9,0.1,1.6,0.1,2.1,0.1c0.4,0,1.1,0,2-0.1c0.9-0.1,1.5-0.1,2-0.1c0.3,0,0.6,0.3,0.9,0.8
		c0.8,1.7,3.2,7.7,7.1,17.9c4,10.3,5.9,15.6,5.9,16.1C-116.6,297.8-116.8,298-117.2,298.1z"/>
</g>
</svg>
