<?xml version="1.0" encoding="utf-8"?>
<!-- Generator: Adobe Illustrator 19.0.1, SVG Export Plug-In . SVG Version: 6.00 Build 0)  -->
<svg version="1.1" id="Calque_1" xmlns="http://www.w3.org/2000/svg" xmlns:xlink="http://www.w3.org/1999/xlink" x="0px" y="0px"
	 viewBox="0 0 425 98" style="enable-background:new 0 0 425 98;" xml:space="preserve">
<style type="text/css">
	.st0{fill:#FFFFFF;}
</style>
<g>
	<path class="st0" d="M199.8,48.9c0,4.6-1.4,8.7-4.3,12.1c-3.1,3.7-6.9,5.5-11.5,5.5c-3,0-5.7-0.8-8.1-2.3c-0.9-0.8-1.9-1.6-2.8-2.4
		c-0.3,0.1-0.4,0.8-0.5,2.1c-0.1,1.3-0.3,2-0.6,2h-7.4c-0.3,0-0.4-0.2-0.4-0.5c0,0,0-0.2,0.1-0.6c0.4-3.7,0.6-10.9,0.6-21.5
		c0-4.3-0.2-10.7-0.6-19.1c-0.2-5.3-0.4-7.7-0.4-7c0-0.6,0.3-0.9,0.9-1c0.8,0,2.1-0.1,3.8-0.1c0.3,0,1-0.1,2-0.2
		c0.8-0.1,1.5-0.2,2-0.2c0.4,0,0.6,0.3,0.6,0.8c0,0.8-0.1,2-0.2,3.7c-0.1,1.6-0.2,2.9-0.2,3.7c0,1.2-0.1,3.1-0.2,5.5
		c-0.1,2.4-0.2,4.3-0.2,5.5c0,0.9,0.2,1.3,0.5,1.3c0.2,0,0.3-0.1,0.5-0.4c2.6-3.2,6-4.8,10.2-4.8c4.9,0,8.8,1.8,11.8,5.4
		C198.4,39.8,199.8,44,199.8,48.9z M191.9,48.6c0-2.8-0.9-5.3-2.6-7.4c-1.9-2.3-4.2-3.4-6.9-3.4c-2.8,0-5.2,1.1-7,3.3
		c-1.8,2.1-2.7,4.6-2.7,7.5c0,2.9,0.9,5.4,2.7,7.5c1.9,2.2,4.2,3.3,7.1,3.3c2.8,0,5.1-1.1,6.9-3.4C191,53.9,191.9,51.4,191.9,48.6z"
		/>
	<path class="st0" d="M239,34.1c0,0.1,0,0.3-0.1,0.6c-0.9,5.4-1.4,10-1.4,13.9c0,0.2,0.3,5.5,0.9,15.8l0,0.5c0,0.7-0.3,1-0.9,1
		c-0.6,0-1.6,0.1-2.9,0.2c-1.3,0.2-2.3,0.2-2.9,0.2c-0.4,0-0.8-0.8-1-2.5c-0.2-1.6-0.5-2.5-0.7-2.5c-0.1,0-0.8,0.5-1.9,1.4
		c-1.4,1.1-2.7,2-3.9,2.6c-1.9,0.9-3.7,1.4-5.6,1.4c-4.5,0-8.4-1.8-11.5-5.4c-3-3.5-4.4-7.5-4.4-12.1c0-5.2,1.5-9.5,4.5-12.9
		c3.1-3.5,7.2-5.3,12.3-5.3c3.6,0,6.7,1.2,9.4,3.7c0.4,0.5,1,1.1,1.9,2c0.1,0.1,0.1,0.1,0.2,0.1c0.1,0,0.3-0.7,0.6-2.2
		c0.3-1.5,0.6-2.2,1-2.2c0.6,0,1.8,0.2,3.6,0.5C238.1,33.4,239,33.7,239,34.1z M230.1,48.8c0-2.9-0.9-5.4-2.6-7.4
		c-1.8-2.2-4.1-3.3-6.9-3.3s-5.2,1.1-7,3.3c-1.8,2.1-2.7,4.6-2.7,7.5c0,2.8,0.9,5.3,2.7,7.4c1.9,2.2,4.2,3.3,7,3.3
		c2.7,0,5-1.1,6.9-3.3C229.2,54,230.1,51.5,230.1,48.8z"/>
	<path class="st0" d="M278.5,16.8c0,3-0.1,7.6-0.4,13.6c-0.3,6-0.4,10.6-0.4,13.6c0,9.3,0.2,16.3,0.6,21l0,0.5
		c0,0.2-0.3,0.4-0.9,0.5c-0.4,0-1.1,0-1.9,0c-1-0.1-1.4-0.1-1.4-0.1c-0.4,0-0.9,0-1.5,0.1c-0.7,0.1-1.2,0.1-1.5,0.1
		c-0.3,0-0.5-0.8-0.6-2.4c-0.1-1.6-0.1-2.5-0.3-2.5c-0.1,0.1-0.3,0.2-0.5,0.5c-3.2,3.5-6.9,5.2-11.1,5.2c-4.7,0-8.6-1.8-11.7-5.4
		c-2.9-3.4-4.3-7.5-4.3-12.3c0-5,1.5-9.2,4.4-12.6c3-3.6,7-5.3,11.9-5.3c3,0,5.5,0.9,7.7,2.6c1,0.9,2,1.7,3,2.6
		c0.2-0.1,0.3-0.2,0.3-0.5V24.5c0-0.8,0-1.9-0.1-3.5c-0.1-1.6-0.1-2.8-0.1-3.6c0-0.6,0.2-0.8,0.6-0.8c0.9,0,2.2-0.1,3.9-0.2
		c1.7-0.2,3-0.2,3.8-0.2C278.3,16.1,278.5,16.3,278.5,16.8z M269.8,48.8c0-2.8-0.9-5.3-2.6-7.4c-1.9-2.3-4.1-3.4-6.9-3.4
		c-2.9,0-5.3,1.1-7.1,3.4c-1.8,2.1-2.7,4.6-2.7,7.6c0,2.8,0.9,5.3,2.8,7.3c1.9,2.2,4.2,3.3,7,3.3c2.8,0,5.1-1.1,7-3.3
		C268.9,54.2,269.8,51.7,269.8,48.8z"/>
	<path class="st0" d="M319,34.1c0,0.1,0,0.3-0.1,0.6c-0.9,5.4-1.4,10-1.4,13.9c0,0.2,0.3,5.5,0.9,15.8l0,0.5c0,0.7-0.3,1-0.9,1
		c-0.6,0-1.6,0.1-2.9,0.2c-1.3,0.2-2.3,0.2-2.9,0.2c-0.4,0-0.8-0.8-1-2.5c-0.2-1.6-0.5-2.5-0.7-2.5c-0.1,0-0.8,0.5-1.9,1.4
		c-1.4,1.1-2.7,2-3.9,2.6c-1.9,0.9-3.7,1.4-5.6,1.4c-4.5,0-8.4-1.8-11.5-5.4c-3-3.5-4.4-7.5-4.4-12.1c0-5.2,1.5-9.5,4.5-12.9
		c3.1-3.5,7.2-5.3,12.3-5.3c3.6,0,6.7,1.2,9.4,3.7c0.4,0.5,1,1.1,1.9,2c0.1,0.1,0.1,0.1,0.2,0.1c0.1,0,0.3-0.7,0.6-2.2
		c0.3-1.5,0.6-2.2,1-2.2c0.6,0,1.8,0.2,3.6,0.5C318,33.4,319,33.7,319,34.1z M310,48.8c0-2.9-0.9-5.4-2.6-7.4
		c-1.8-2.2-4.1-3.3-6.9-3.3s-5.2,1.1-7,3.3c-1.8,2.1-2.7,4.6-2.7,7.5c0,2.8,0.9,5.3,2.7,7.4c1.9,2.2,4.2,3.3,7,3.3
		c2.7,0,5-1.1,6.9-3.3C309.1,54,310,51.5,310,48.8z"/>
	<path class="st0" d="M359.6,48.9c0,4.6-1.4,8.7-4.3,12.1c-3.1,3.7-6.9,5.5-11.5,5.5c-3,0-5.7-0.8-8.1-2.3c-0.9-0.8-1.9-1.6-2.8-2.4
		c-0.3,0.1-0.4,0.8-0.5,2.1c-0.1,1.3-0.3,2-0.6,2h-7.4c-0.3,0-0.4-0.2-0.4-0.5c0,0,0-0.2,0.1-0.6c0.4-3.7,0.6-10.9,0.6-21.5
		c0-4.3-0.2-10.7-0.6-19.1c-0.2-5.3-0.4-7.7-0.4-7c0-0.6,0.3-0.9,0.9-1c0.8,0,2.1-0.1,3.8-0.1c0.3,0,1-0.1,2-0.2
		c0.8-0.1,1.5-0.2,2-0.2c0.4,0,0.6,0.3,0.6,0.8c0,0.8-0.1,2-0.2,3.7c-0.1,1.6-0.2,2.9-0.2,3.7c0,1.2-0.1,3.1-0.2,5.5
		c-0.1,2.4-0.2,4.3-0.2,5.5c0,0.9,0.2,1.3,0.5,1.3c0.2,0,0.3-0.1,0.5-0.4c2.6-3.2,6-4.8,10.2-4.8c4.9,0,8.8,1.8,11.8,5.4
		C358.2,39.8,359.6,44,359.6,48.9z M351.6,48.6c0-2.8-0.9-5.3-2.6-7.4c-1.9-2.3-4.2-3.4-6.9-3.4c-2.8,0-5.2,1.1-7,3.3
		c-1.8,2.1-2.7,4.6-2.7,7.5c0,2.9,0.9,5.4,2.7,7.5c1.9,2.2,4.2,3.3,7.1,3.3c2.8,0,5.1-1.1,6.9-3.4C350.8,53.9,351.6,51.4,351.6,48.6
		z"/>
	<path class="st0" d="M384.7,32.9c0,2.6-0.2,4.9-0.5,7c-0.1,0.5-0.3,0.8-0.7,0.8c-0.5,0-1.2-0.1-2.2-0.2c-1-0.1-1.8-0.2-2.3-0.2
		c-3,0-4.8,0.8-5.7,2.5c-0.5,1-0.7,3.1-0.7,6.3V53c0,1.3,0.1,3.3,0.2,6s0.2,4.7,0.2,6c0,0.6-0.3,0.9-0.8,0.9c-0.7,0-1.8,0-3.3,0
		c-1.5,0-2.6,0-3.3,0c-0.5,0-0.8-0.3-0.8-0.9c0-1.9,0-4.8,0.1-8.6c0.1-3.8,0.1-6.7,0.1-8.6c0-5.8-0.5-10.4-1.6-14
		c0-0.2-0.1-0.3-0.1-0.4c0-0.3,0.2-0.5,0.5-0.6c0.9-0.1,2.1-0.2,3.7-0.4c2.5-0.5,3.7-0.7,3.5-0.7c0.4,0,0.6,0.7,0.7,2.1
		c0.1,1.4,0.3,2.1,0.6,2.1c0,0,0.1,0,0.2-0.1c1-0.6,1.9-1.2,2.9-1.8c1.1-0.6,2.1-1.1,3.2-1.4c0.9-0.3,2.1-0.4,3.5-0.4
		C383.8,32.1,384.7,32.4,384.7,32.9z"/>
	<path class="st0" d="M422.8,34.1c0,0.1,0,0.3-0.1,0.6c-0.9,5.4-1.4,10-1.4,13.9c0,0.2,0.3,5.5,0.9,15.8l0,0.5c0,0.7-0.3,1-0.9,1
		c-0.6,0-1.6,0.1-2.9,0.2c-1.3,0.2-2.3,0.2-2.9,0.2c-0.4,0-0.8-0.8-1-2.5c-0.2-1.6-0.5-2.5-0.7-2.5c-0.1,0-0.8,0.5-1.9,1.4
		c-1.4,1.1-2.7,2-3.9,2.6c-1.9,0.9-3.7,1.4-5.6,1.4c-4.5,0-8.4-1.8-11.5-5.4c-3-3.5-4.4-7.5-4.4-12.1c0-5.2,1.5-9.5,4.5-12.9
		c3.1-3.5,7.2-5.3,12.3-5.3c3.6,0,6.7,1.2,9.4,3.7c0.4,0.5,1,1.1,1.9,2c0.1,0.1,0.1,0.1,0.2,0.1c0.1,0,0.3-0.7,0.6-2.2
		c0.3-1.5,0.6-2.2,1-2.2c0.6,0,1.8,0.2,3.6,0.5C421.8,33.4,422.8,33.7,422.8,34.1z M413.8,48.8c0-2.9-0.9-5.4-2.6-7.4
		c-1.8-2.2-4.1-3.3-6.9-3.3s-5.2,1.1-7,3.3c-1.8,2.1-2.7,4.6-2.7,7.5c0,2.8,0.9,5.3,2.7,7.4c1.9,2.2,4.2,3.3,7,3.3
		c2.7,0,5-1.1,6.9-3.3C412.9,54,413.8,51.5,413.8,48.8z"/>
</g>
<g>
	<path class="st0" d="M38.8,34.1c0,0.1,0,0.3-0.1,0.6c-0.9,5.4-1.4,10-1.4,13.9c0,0.2,0.3,5.5,0.9,15.8l0,0.5c0,0.7-0.3,1-0.9,1
		c-0.6,0-1.6,0.1-2.9,0.2c-1.3,0.2-2.3,0.2-2.9,0.2c-0.4,0-0.8-0.8-1-2.5c-0.2-1.6-0.5-2.5-0.7-2.5c-0.1,0-0.8,0.5-1.9,1.4
		c-1.4,1.1-2.7,2-3.9,2.6c-1.9,0.9-3.7,1.4-5.6,1.4c-4.5,0-8.4-1.8-11.5-5.4c-3-3.5-4.4-7.5-4.4-12.1c0-5.2,1.5-9.5,4.5-12.9
		c3.1-3.5,7.2-5.3,12.3-5.3c3.6,0,6.7,1.2,9.4,3.7c0.4,0.5,1,1.1,1.9,2c0.1,0.1,0.1,0.1,0.2,0.1c0.1,0,0.3-0.7,0.6-2.2
		c0.3-1.5,0.6-2.2,1-2.2c0.6,0,1.8,0.2,3.6,0.5C37.9,33.4,38.8,33.7,38.8,34.1z M29.9,48.8c0-2.9-0.9-5.4-2.6-7.4
		c-1.8-2.2-4.1-3.3-6.9-3.3s-5.2,1.1-7,3.3c-1.8,2.1-2.7,4.6-2.7,7.5c0,2.8,0.9,5.3,2.7,7.4c1.9,2.2,4.2,3.3,7,3.3
		c2.7,0,5-1.1,6.9-3.3C29,54,29.9,51.5,29.9,48.8z"/>
</g>
<g>
	<path class="st0" d="M132.8,42.8c-0.3,0.7-0.9,2.3-1.8,4.8c-0.9,2.6-1.3,4.1-1.3,4.6c0,0.3,0.5,0.5,1.5,0.5c0.5,0,1.4,0,2.5,0
		c1.1,0,1.7-0.1,1.8-0.4c0-0.1,0-0.2,0-0.3c0-0.5-0.4-2.1-1.1-4.5C133.7,45,133.1,43.5,132.8,42.8z"/>
	<path class="st0" d="M102.3,39.3c-1-0.6-2.6-0.9-4.8-0.9c-1.6,0-2.4,0.2-2.5,0.7c-0.1,0.6-0.1,2.2-0.1,4.9c0,0.4,0,0.9,0,1.7
		c0,0.7,0,1.3,0,1.7c0,0.1,0.3,0.2,0.8,0.2c1,0.1,2.1,0.2,3.2,0.2c3.6,0,5.5-1.4,5.5-4.3C104.3,41.5,103.7,40.1,102.3,39.3z"/>
	<path class="st0" d="M47,0v98h107V0H47z M81.9,61.6c-3.1,3.6-7.1,5.5-12.2,5.5c-5.2,0-9.4-1.8-12.6-5.3c-3.1-3.4-4.7-7.7-4.7-12.9
		c0-5,1.5-9.3,4.6-12.8c3.2-3.7,7.3-5.5,12.2-5.5c5.4,0,9.6,1.7,12.7,5c0.3,0.4,0.5,0.7,0.5,1c0,0.3-0.6,1.5-1.7,3.5
		c-1.2,2-1.9,3.2-2.2,3.4c-0.1,0.1-0.3,0.2-0.5,0.2c-0.1,0-0.5-0.3-1.2-1c-0.9-0.8-1.8-1.4-2.6-1.9c-1.3-0.7-2.7-1-4.1-1
		c-2.4,0-4.4,0.9-5.9,2.7c-1.3,1.7-2,3.8-2,6.3c0,2.5,0.7,4.6,2,6.3c1.5,1.9,3.4,2.8,5.9,2.8c1.4,0,2.8-0.3,4.1-0.9
		c0.8-0.4,1.7-1,2.6-1.7c0.7-0.6,1.1-0.9,1.2-0.9c0.2,0,0.3,0.1,0.5,0.3c0.3,0.3,1,1.3,2.2,3.1c1.2,1.8,1.8,2.9,1.8,3
		C82.4,60.8,82.2,61.1,81.9,61.6z M114.3,66.1c-0.6,0.1-2.2,0.1-4.8,0.1c-2.2,0-3.7,0-4.4-0.1c-0.4,0-0.6-0.1-0.6-0.1
		c-0.1-0.1-0.2-0.2-0.3-0.5c-0.2-0.6-0.6-1.6-1.1-2.9c-0.6-1.7-1.7-4.1-3-7.3c-0.3-0.6-0.9-1-1.9-1.1c0,0-0.9,0-2.7,0
		c-0.2,0-0.4,0.4-0.4,1.3c0,1.1,0.1,2.8,0.3,5.1c0.2,2.2,0.3,3.9,0.3,5.1c0,0.3-0.1,0.4-0.2,0.5c-0.2,0-0.5,0-0.7,0
		c-1,0.1-2.5,0.1-4.6,0.1c-2.4,0-3.8,0-4.3-0.1c-0.5-0.1-0.7-0.4-0.7-0.8c0-1.8,0.1-4.6,0.3-8.3s0.3-6.4,0.3-8.3
		c0-7-0.2-12.5-0.5-16.4l0-0.3c0-0.3,0.2-0.5,0.8-0.6c0.5-0.1,3.1-0.2,7.6-0.3c3.1-0.1,5.5-0.1,7.3-0.1c3.8,0,6.9,0.9,9.3,2.6
		c2.7,1.9,4.1,4.7,4.1,8.3c0,2.4-0.3,4.4-1,5.8s-2,2.8-3.9,4.2c-0.4,0.3-0.6,0.5-0.6,0.7c0,0,1,2.1,3,6.3c2,4.2,3,6.5,3,6.9
		C114.8,66,114.6,66.1,114.3,66.1z M149.8,66.1c-0.5,0.1-2,0.2-4.6,0.2c-2.4,0-3.9-0.1-4.6-0.2c-0.6-0.1-0.9-0.5-1.1-1.1
		c-0.6-2.4-1-3.7-1.3-3.8c-0.3-0.1-2.5-0.2-6.7-0.2c-2.8,0-4.3,0.1-4.5,0.2c-0.3,0.3-0.6,1.2-0.9,2.7c-0.3,1.4-0.7,2.1-1.1,2.2
		c-0.6,0.1-2.5,0.2-5.7,0.2c-2.5,0-3.8-0.2-3.8-0.7c0-0.4,1.9-5.7,5.6-15.9c4.1-11,6.3-17.1,6.6-18.2c0.2-0.6,0.4-0.9,0.7-0.9
		c0.4,0,1.1,0,2.1,0.1c0.9,0.1,1.6,0.1,2.1,0.1c0.4,0,1.1,0,2-0.1c0.9-0.1,1.5-0.1,2-0.1c0.3,0,0.6,0.3,0.9,0.8
		c0.8,1.7,3.2,7.7,7.1,17.9c4,10.3,5.9,15.6,5.9,16.1C150.4,65.8,150.2,66,149.8,66.1z"/>
</g>
</svg>
