<?xml version="1.0" encoding="utf-8"?>
<!-- Generator: Adobe Illustrator 23.1.1, SVG Export Plug-In . SVG Version: 6.00 Build 0)  -->
<svg version="1.1" id="Calque_1" xmlns="http://www.w3.org/2000/svg" xmlns:xlink="http://www.w3.org/1999/xlink" x="0px" y="0px"
	 viewBox="0 0 36 36" style="enable-background:new 0 0 36 36;" xml:space="preserve">
<style type="text/css">
	.st0{fill:#FFFFFF;}
</style>
<g>
	<path class="st0" d="M0,0v36h36V0H0z M11.7,22.2c-1,1.2-2.4,1.9-4.1,1.9c-1.8,0-3.2-0.6-4.2-1.8c-1-1.2-1.6-2.6-1.6-4.3
		c0-1.7,0.5-3.1,1.5-4.3c1.1-1.2,2.5-1.8,4.1-1.8c1.8,0,3.2,0.6,4.3,1.7c0.1,0.1,0.2,0.2,0.2,0.3c0,0.1-0.2,0.5-0.6,1.2
		c-0.4,0.7-0.6,1.1-0.7,1.1c0,0-0.1,0.1-0.2,0.1c0,0-0.2-0.1-0.4-0.3c-0.3-0.3-0.6-0.5-0.9-0.6c-0.4-0.2-0.9-0.3-1.4-0.3
		c-0.8,0-1.5,0.3-2,0.9c-0.4,0.6-0.7,1.3-0.7,2.1c0,0.8,0.2,1.5,0.7,2.1c0.5,0.6,1.1,0.9,2,0.9c0.5,0,0.9-0.1,1.4-0.3
		c0.3-0.1,0.6-0.3,0.9-0.6c0.2-0.2,0.4-0.3,0.4-0.3c0.1,0,0.1,0,0.2,0.1c0.1,0.1,0.3,0.4,0.7,1c0.4,0.6,0.6,1,0.6,1
		C11.9,22,11.8,22.1,11.7,22.2z M22.6,23.8c-0.2,0-0.7,0-1.6,0c-0.7,0-1.2,0-1.5,0c-0.1,0-0.2,0-0.2,0c0,0-0.1-0.1-0.1-0.2
		c-0.1-0.2-0.2-0.5-0.4-1c-0.2-0.6-0.6-1.4-1-2.5c-0.1-0.2-0.3-0.3-0.6-0.4c0,0-0.3,0-0.9,0c-0.1,0-0.1,0.1-0.1,0.4
		c0,0.4,0,0.9,0.1,1.7c0.1,0.7,0.1,1.3,0.1,1.7c0,0.1,0,0.1-0.1,0.2h-0.2c-0.3,0-0.8,0-1.5,0c-0.8,0-1.3,0-1.4,0
		c-0.2,0-0.2-0.1-0.2-0.3c0-0.6,0-1.6,0.1-2.8c0.1-1.2,0.1-2.2,0.1-2.8c0-2.3-0.1-4.2-0.2-5.5v-0.1c0-0.1,0.1-0.2,0.3-0.2
		c0.2,0,1-0.1,2.6-0.1c1,0,1.8,0,2.5,0c1.3,0,2.3,0.3,3.1,0.9c0.9,0.6,1.4,1.6,1.4,2.8c0,0.8-0.1,1.5-0.3,2
		c-0.2,0.5-0.7,0.9-1.3,1.4c-0.1,0.1-0.2,0.2-0.2,0.2c0,0,0.3,0.7,1,2.1c0.7,1.4,1,2.2,1,2.3C22.8,23.7,22.7,23.8,22.6,23.8z
		 M34.6,23.8c-0.2,0-0.7,0.1-1.6,0.1c-0.8,0-1.3,0-1.5-0.1c-0.2,0-0.3-0.2-0.4-0.4c-0.2-0.8-0.3-1.2-0.4-1.3c-0.1,0-0.8-0.1-2.2-0.1
		c-0.9,0-1.5,0-1.5,0.1c-0.1,0.1-0.2,0.4-0.3,0.9c-0.1,0.5-0.2,0.7-0.4,0.7c-0.2,0-0.8,0.1-1.9,0.1c-0.9,0-1.3-0.1-1.3-0.2
		c0-0.1,0.6-1.9,1.9-5.4c1.4-3.7,2.1-5.8,2.2-6.1c0.1-0.2,0.1-0.3,0.2-0.3c0.1,0,0.4,0,0.7,0c0.3,0,0.5,0,0.7,0c0.1,0,0.4,0,0.7,0
		c0.3,0,0.5,0,0.7,0c0.1,0,0.2,0.1,0.3,0.3c0.3,0.6,1.1,2.6,2.4,6c1.3,3.5,2,5.2,2,5.4C34.8,23.7,34.7,23.7,34.6,23.8z"/>
	<path class="st0" d="M29.8,19L29.8,19c0,0.2-0.2,0.2-0.6,0.2h-0.8c-0.3,0-0.5-0.1-0.5-0.2c0-0.2,0.1-0.7,0.4-1.5
		c0.3-0.8,0.5-1.4,0.6-1.6c0.1,0.2,0.3,0.7,0.5,1.6C29.6,18.3,29.8,18.8,29.8,19z"/>
	<path class="st0" d="M19.3,16.2c0,1-0.6,1.4-1.8,1.4c-0.4,0-0.7,0-1.1-0.1c-0.2,0-0.3,0-0.3-0.1v-1.1c0-0.9,0-1.5,0-1.7
		c0-0.2,0.3-0.2,0.8-0.2c0.7,0,1.3,0.1,1.6,0.3C19.1,15,19.3,15.5,19.3,16.2z"/>
</g>
</svg>
