<?xml version="1.0" standalone="no"?>
<!DOCTYPE svg PUBLIC "-//W3C//DTD SVG 20010904//EN"
 "http://www.w3.org/TR/2001/REC-SVG-20010904/DTD/svg10.dtd">
<svg version="1.0" xmlns="http://www.w3.org/2000/svg"
 width="500.000000pt" height="500.000000pt" viewBox="0 0 500.000000 500.000000"
 preserveAspectRatio="xMidYMid meet">
<metadata>
Created by potrace 1.11, written by Peter Selinger 2001-2013
</metadata>
<g transform="translate(0.000000,500.000000) scale(0.100000,-0.100000)"
fill="#000000" stroke="none">
<path d="M0 2500 l0 -2290 2500 0 2500 0 0 2290 0 2290 -2500 0 -2500 0 0
-2290z m1195 856 c138 -27 261 -82 355 -159 34 -28 68 -63 76 -78 14 -27 12
-33 -36 -125 -57 -109 -137 -234 -150 -234 -8 0 -46 30 -105 83 -11 10 -51 34
-90 52 -204 100 -416 33 -506 -159 -37 -80 -49 -148 -44 -249 4 -86 10 -113
43 -187 87 -195 321 -264 530 -156 17 9 60 38 96 66 36 27 71 48 78 45 12 -5
128 -173 179 -259 20 -35 20 -37 4 -64 -27 -42 -124 -130 -187 -168 -121 -74
-251 -104 -423 -100 -273 8 -483 121 -633 344 -100 147 -143 310 -137 527 4
158 5 166 46 289 87 262 290 457 539 520 73 19 115 23 208 21 65 -1 135 -5
157 -9z m2805 -6 c69 0 135 2 146 4 14 3 29 -4 42 -17 27 -31 226 -528 467
-1167 42 -113 81 -214 85 -225 27 -61 70 -202 68 -219 -4 -30 -47 -35 -266
-32 -177 2 -194 3 -212 22 -11 11 -22 30 -25 43 -2 12 -7 31 -10 41 -3 10 -8
28 -10 40 -2 12 -12 38 -22 58 l-18 37 -258 2 c-298 2 -271 12 -306 -116 -26
-93 -44 -121 -79 -122 -120 -6 -278 -8 -329 -3 -107 9 -106 -2 -15 254 77 214
315 868 329 900 3 8 7 20 9 25 1 6 20 57 42 115 22 58 59 159 82 225 23 66 46
125 52 132 5 7 28 10 56 8 26 -2 103 -4 172 -5z m-1342 -24 c173 -30 330 -126
399 -244 83 -141 82 -417 -2 -554 -26 -41 -162 -178 -177 -178 -18 0 -5 -44
41 -136 172 -345 236 -493 221 -508 -10 -10 -398 -13 -450 -4 -21 4 -31 19
-58 89 -112 286 -178 433 -201 448 -17 11 -49 16 -109 16 -111 1 -105 19 -87
-242 3 -50 8 -101 10 -112 7 -36 8 -191 2 -198 -9 -8 -357 -11 -418 -3 -28 4
-54 12 -59 19 -4 7 -6 41 -4 74 15 319 18 467 18 822 0 226 -4 474 -8 551 -7
131 -6 142 10 148 10 4 86 9 169 12 82 3 151 7 152 7 6 6 516 -1 551 -7z"/>
<path d="M3977 2763 c-3 -10 -24 -70 -47 -133 -70 -193 -91 -273 -76 -288 14
-14 234 -21 255 -8 6 4 11 20 11 36 0 55 -112 410 -130 410 -4 0 -10 -8 -13
-17z"/>
<path d="M2289 2992 c-64 -5 -69 -19 -70 -188 -1 -82 -1 -168 0 -191 l1 -42
53 -10 c69 -15 232 -7 279 13 82 35 118 109 107 217 -11 107 -61 164 -164 187
-55 12 -149 19 -206 14z"/>
</g>
</svg>
